<svg width="253" height="50" viewBox="0 0 253 50" fill="none" xmlns="http://www.w3.org/2000/svg">
<path d="M21.096 20.688H8.136V26.628H19.512V31.128H8.136V42H2.736V16.116H21.096V20.688ZM40.3318 39.66C38.7118 41.676 36.2638 42.684 32.9518 42.684C29.6758 42.684 27.2278 41.676 25.6078 39.66C23.9878 37.68 23.1598 35.268 23.1598 32.46C23.1598 29.688 23.9878 27.276 25.6078 25.26C27.2278 23.244 29.6758 22.236 32.9518 22.236C36.2638 22.236 38.7118 23.244 40.3318 25.26C41.9518 27.276 42.7438 29.688 42.7438 32.46C42.7438 35.268 41.9518 37.68 40.3318 39.66ZM36.2998 36.888C37.0918 35.88 37.4878 34.368 37.4878 32.46C37.4878 30.552 37.0918 29.04 36.2998 27.996C35.5078 26.988 34.3918 26.448 32.9518 26.448C31.4758 26.448 30.3598 26.988 29.5678 27.996C28.7758 29.04 28.3798 30.552 28.3798 32.46C28.3798 34.368 28.7758 35.88 29.5678 36.888C30.3598 37.932 31.4758 38.472 32.9518 38.472C34.3918 38.472 35.5078 37.932 36.2998 36.888ZM57.0116 22.38C57.0476 22.416 57.1916 22.416 57.4436 22.416V27.564C57.1196 27.528 56.8316 27.492 56.5796 27.492C56.3276 27.456 56.1476 27.456 56.0036 27.456C53.9516 27.456 52.6196 28.104 51.9356 29.436C51.5396 30.156 51.3596 31.308 51.3596 32.856V42H46.2836V22.848H51.0716V26.196C51.8636 24.9 52.5116 24.036 53.0876 23.568C54.0236 22.776 55.2476 22.38 56.7596 22.38H57.0116ZM79.8713 22.812C81.0593 23.316 82.0673 24.252 82.8233 25.584V22.848H87.6833V41.028C87.6833 43.512 87.2513 45.348 86.4233 46.608C85.0193 48.768 82.2833 49.848 78.2153 49.848C75.7673 49.848 73.7513 49.38 72.2033 48.408C70.6553 47.436 69.7913 45.996 69.6473 44.088H75.0833C75.2273 44.664 75.4793 45.096 75.7673 45.348C76.3073 45.816 77.2073 46.032 78.5033 46.032C80.3033 46.032 81.5273 45.456 82.1393 44.232C82.5353 43.476 82.7153 42.144 82.7153 40.344V39.084C82.2473 39.912 81.7073 40.524 81.1673 40.956C80.1593 41.712 78.8993 42.072 77.2793 42.072C74.8313 42.072 72.8513 41.244 71.4113 39.48C69.9353 37.752 69.1793 35.412 69.1793 32.46C69.1793 29.616 69.8993 27.24 71.3033 25.296C72.7433 23.352 74.7593 22.38 77.3513 22.38C78.3233 22.38 79.1513 22.524 79.8713 22.812ZM81.5633 36.564C82.3553 35.664 82.7873 34.26 82.7873 32.316C82.7873 30.516 82.3913 29.148 81.6353 28.176C80.8433 27.24 79.8353 26.772 78.5393 26.772C76.7753 26.772 75.5513 27.6 74.9033 29.256C74.5433 30.12 74.3633 31.2 74.3633 32.496C74.3633 33.612 74.5793 34.584 74.9393 35.448C75.6233 37.068 76.8473 37.896 78.5753 37.896C79.7633 37.896 80.7713 37.464 81.5633 36.564ZM99.8992 30.336C100.835 30.228 101.483 30.084 101.879 29.904C102.599 29.616 102.959 29.148 102.959 28.5C102.959 27.708 102.707 27.132 102.131 26.844C101.591 26.556 100.799 26.412 99.7552 26.412C98.5672 26.412 97.7032 26.7 97.2352 27.276C96.8752 27.744 96.6592 28.32 96.5152 29.04H91.6912C91.7992 27.384 92.2672 25.98 93.0952 24.9C94.4272 23.244 96.6952 22.38 99.8992 22.38C102.023 22.38 103.859 22.812 105.515 23.64C107.135 24.468 107.963 26.052 107.963 28.356V37.14C107.963 37.752 107.963 38.472 107.999 39.336C108.035 39.984 108.107 40.452 108.287 40.668C108.431 40.92 108.683 41.1 109.007 41.244V42H103.571C103.427 41.604 103.319 41.244 103.247 40.92C103.211 40.56 103.139 40.2 103.103 39.768C102.419 40.488 101.627 41.136 100.727 41.676C99.6472 42.288 98.4232 42.612 97.0552 42.612C95.3272 42.612 93.8872 42.108 92.7712 41.1C91.6192 40.128 91.0792 38.724 91.0792 36.888C91.0792 34.548 91.9792 32.856 93.7792 31.776C94.7872 31.2 96.2632 30.804 98.2072 30.552L99.8992 30.336ZM102.923 32.676C102.635 32.892 102.311 33.036 101.987 33.144C101.663 33.288 101.231 33.396 100.655 33.504L99.5392 33.72C98.4592 33.9 97.7032 34.152 97.2712 34.404C96.4792 34.872 96.0832 35.556 96.0832 36.528C96.0832 37.392 96.3352 38.004 96.8032 38.364C97.3072 38.76 97.8472 38.976 98.5312 38.976C99.6112 38.976 100.619 38.652 101.519 38.004C102.419 37.392 102.887 36.204 102.923 34.548V32.676ZM136.283 22.92C137.111 23.244 137.831 23.82 138.515 24.648C139.055 25.296 139.415 26.124 139.595 27.096C139.739 27.744 139.775 28.68 139.775 29.94L139.739 42H134.627V29.796C134.627 29.076 134.483 28.5 134.267 27.996C133.835 27.096 133.007 26.664 131.783 26.664C130.415 26.664 129.479 27.24 128.939 28.392C128.687 29.004 128.543 29.724 128.543 30.588V42H123.503V30.588C123.503 29.436 123.359 28.608 123.143 28.104C122.711 27.168 121.883 26.736 120.659 26.736C119.219 26.736 118.283 27.168 117.779 28.104C117.527 28.644 117.383 29.436 117.383 30.48V42H112.271V22.884H117.167V25.656C117.779 24.684 118.355 23.964 118.931 23.532C119.867 22.776 121.163 22.416 122.711 22.416C124.151 22.416 125.339 22.74 126.239 23.388C126.959 24 127.535 24.756 127.895 25.692C128.543 24.576 129.371 23.748 130.343 23.208C131.387 22.668 132.539 22.416 133.799 22.416C134.627 22.416 135.455 22.56 136.283 22.92ZM144.443 15.936H149.519V20.544H144.443V15.936ZM149.519 42H144.443V22.848H149.519V42ZM169.871 23.928C171.131 24.972 171.743 26.7 171.743 29.112V42H166.631V30.336C166.631 29.328 166.487 28.572 166.235 28.032C165.731 27.024 164.795 26.556 163.391 26.556C161.699 26.556 160.547 27.276 159.899 28.716C159.575 29.472 159.431 30.444 159.431 31.632V42H154.427V22.884H159.251V25.656C159.899 24.684 160.511 24 161.087 23.532C162.131 22.776 163.427 22.38 165.011 22.38C166.991 22.38 168.611 22.884 169.871 23.928ZM185.903 22.812C187.091 23.316 188.099 24.252 188.855 25.584V22.848H193.715V41.028C193.715 43.512 193.283 45.348 192.455 46.608C191.051 48.768 188.315 49.848 184.247 49.848C181.799 49.848 179.783 49.38 178.235 48.408C176.687 47.436 175.823 45.996 175.679 44.088H181.115C181.259 44.664 181.511 45.096 181.799 45.348C182.339 45.816 183.239 46.032 184.535 46.032C186.335 46.032 187.559 45.456 188.171 44.232C188.567 43.476 188.747 42.144 188.747 40.344V39.084C188.279 39.912 187.739 40.524 187.199 40.956C186.191 41.712 184.931 42.072 183.311 42.072C180.863 42.072 178.883 41.244 177.443 39.48C175.967 37.752 175.211 35.412 175.211 32.46C175.211 29.616 175.931 27.24 177.335 25.296C178.775 23.352 180.791 22.38 183.383 22.38C184.355 22.38 185.183 22.524 185.903 22.812ZM187.595 36.564C188.387 35.664 188.819 34.26 188.819 32.316C188.819 30.516 188.423 29.148 187.667 28.176C186.875 27.24 185.867 26.772 184.571 26.772C182.807 26.772 181.583 27.6 180.935 29.256C180.575 30.12 180.395 31.2 180.395 32.496C180.395 33.612 180.611 34.584 180.971 35.448C181.655 37.068 182.879 37.896 184.607 37.896C185.795 37.896 186.803 37.464 187.595 36.564Z" fill="#10B981"/>
<path d="M248.97 14.6524C248.778 13.5647 247.74 12.8385 246.652 13.0304L228.926 16.1586C227.839 16.3505 227.112 17.3879 227.304 18.4757C227.496 19.5635 228.534 20.2897 229.621 20.0977L245.378 17.3171L248.159 33.0737C248.351 34.1614 249.388 34.8876 250.476 34.6957C251.563 34.5037 252.29 33.4663 252.098 32.3785L248.97 14.6524ZM233 35L234.638 36.1469L248.638 16.1469L247 15L245.362 13.8531L231.362 33.8531L233 35Z" fill="#10B981"/>
</svg>
