<svg width="209" height="50" viewBox="0 0 209 50" fill="none" xmlns="http://www.w3.org/2000/svg">
<path d="M21.096 20.688H8.136V26.628H19.512V31.128H8.136V42H2.736V16.116H21.096V20.688ZM40.3318 39.66C38.7118 41.676 36.2638 42.684 32.9518 42.684C29.6758 42.684 27.2278 41.676 25.6078 39.66C23.9878 37.68 23.1598 35.268 23.1598 32.46C23.1598 29.688 23.9878 27.276 25.6078 25.26C27.2278 23.244 29.6758 22.236 32.9518 22.236C36.2638 22.236 38.7118 23.244 40.3318 25.26C41.9518 27.276 42.7438 29.688 42.7438 32.46C42.7438 35.268 41.9518 37.68 40.3318 39.66ZM36.2998 36.888C37.0918 35.88 37.4878 34.368 37.4878 32.46C37.4878 30.552 37.0918 29.04 36.2998 27.996C35.5078 26.988 34.3918 26.448 32.9518 26.448C31.4758 26.448 30.3598 26.988 29.5678 27.996C28.7758 29.04 28.3798 30.552 28.3798 32.46C28.3798 34.368 28.7758 35.88 29.5678 36.888C30.3598 37.932 31.4758 38.472 32.9518 38.472C34.3918 38.472 35.5078 37.932 36.2998 36.888ZM57.0116 22.38C57.0476 22.416 57.1916 22.416 57.4436 22.416V27.564C57.1196 27.528 56.8316 27.492 56.5796 27.492C56.3276 27.456 56.1476 27.456 56.0036 27.456C53.9516 27.456 52.6196 28.104 51.9356 29.436C51.5396 30.156 51.3596 31.308 51.3596 32.856V42H46.2836V22.848H51.0716V26.196C51.8636 24.9 52.5116 24.036 53.0876 23.568C54.0236 22.776 55.2476 22.38 56.7596 22.38H57.0116ZM87.3953 36.636L90.3833 22.848H95.6033L90.0593 42H84.9113L81.8873 28.032L78.8633 42H73.6433L68.2793 22.848H73.6433L76.6313 36.6L79.4033 22.848H84.4793L87.3953 36.636ZM114.371 39.66C112.751 41.676 110.303 42.684 106.991 42.684C103.715 42.684 101.267 41.676 99.6469 39.66C98.0269 37.68 97.1989 35.268 97.1989 32.46C97.1989 29.688 98.0269 27.276 99.6469 25.26C101.267 23.244 103.715 22.236 106.991 22.236C110.303 22.236 112.751 23.244 114.371 25.26C115.991 27.276 116.783 29.688 116.783 32.46C116.783 35.268 115.991 37.68 114.371 39.66ZM110.339 36.888C111.131 35.88 111.527 34.368 111.527 32.46C111.527 30.552 111.131 29.04 110.339 27.996C109.547 26.988 108.431 26.448 106.991 26.448C105.515 26.448 104.399 26.988 103.607 27.996C102.815 29.04 102.419 30.552 102.419 32.46C102.419 34.368 102.815 35.88 103.607 36.888C104.399 37.932 105.515 38.472 106.991 38.472C108.431 38.472 109.547 37.932 110.339 36.888ZM131.051 22.38C131.087 22.416 131.231 22.416 131.483 22.416V27.564C131.159 27.528 130.871 27.492 130.619 27.492C130.367 27.456 130.187 27.456 130.043 27.456C127.991 27.456 126.659 28.104 125.975 29.436C125.579 30.156 125.399 31.308 125.399 32.856V42H120.323V22.848H125.111V26.196C125.903 24.9 126.551 24.036 127.127 23.568C128.063 22.776 129.287 22.38 130.799 22.38H131.051ZM139.247 30.12L145.511 22.92H151.703L145.007 30.264L151.955 42H145.907L141.335 33.792L139.247 35.988V42H134.315V16.188H139.247V30.12Z" fill="#10B981"/>
<path d="M204.97 14.6524C204.778 13.5647 203.74 12.8385 202.652 13.0304L184.926 16.1586C183.839 16.3505 183.112 17.3879 183.304 18.4757C183.496 19.5635 184.534 20.2897 185.621 20.0977L201.378 17.3171L204.159 33.0737C204.351 34.1614 205.388 34.8876 206.476 34.6957C207.563 34.5037 208.29 33.4663 208.098 32.3785L204.97 14.6524ZM189 35L190.638 36.1469L204.638 16.1469L203 15L201.362 13.8531L187.362 33.8531L189 35Z" fill="#10B981"/>
</svg>
