<svg width="245" height="50" viewBox="0 0 245 50" fill="none" xmlns="http://www.w3.org/2000/svg">
<path d="M21.096 20.688H8.136V26.628H19.512V31.128H8.136V42H2.736V16.116H21.096V20.688ZM40.3318 39.66C38.7118 41.676 36.2638 42.684 32.9518 42.684C29.6758 42.684 27.2278 41.676 25.6078 39.66C23.9878 37.68 23.1598 35.268 23.1598 32.46C23.1598 29.688 23.9878 27.276 25.6078 25.26C27.2278 23.244 29.6758 22.236 32.9518 22.236C36.2638 22.236 38.7118 23.244 40.3318 25.26C41.9518 27.276 42.7438 29.688 42.7438 32.46C42.7438 35.268 41.9518 37.68 40.3318 39.66ZM36.2998 36.888C37.0918 35.88 37.4878 34.368 37.4878 32.46C37.4878 30.552 37.0918 29.04 36.2998 27.996C35.5078 26.988 34.3918 26.448 32.9518 26.448C31.4758 26.448 30.3598 26.988 29.5678 27.996C28.7758 29.04 28.3798 30.552 28.3798 32.46C28.3798 34.368 28.7758 35.88 29.5678 36.888C30.3598 37.932 31.4758 38.472 32.9518 38.472C34.3918 38.472 35.5078 37.932 36.2998 36.888ZM57.0116 22.38C57.0476 22.416 57.1916 22.416 57.4436 22.416V27.564C57.1196 27.528 56.8316 27.492 56.5796 27.492C56.3276 27.456 56.1476 27.456 56.0036 27.456C53.9516 27.456 52.6196 28.104 51.9356 29.436C51.5396 30.156 51.3596 31.308 51.3596 32.856V42H46.2836V22.848H51.0716V26.196C51.8636 24.9 52.5116 24.036 53.0876 23.568C54.0236 22.776 55.2476 22.38 56.7596 22.38H57.0116ZM74.2553 35.88C74.3633 36.78 74.6153 37.428 74.9393 37.788C75.5513 38.436 76.7393 38.796 78.3953 38.796C79.3673 38.796 80.1593 38.652 80.7713 38.328C81.3473 38.04 81.5993 37.608 81.5993 37.032C81.5993 36.456 81.3833 36.024 80.9153 35.736C80.4473 35.448 78.6833 34.944 75.6953 34.224C73.5353 33.684 71.9873 33 71.0873 32.208C70.2233 31.416 69.7553 30.264 69.7553 28.752C69.7553 26.988 70.4753 25.476 71.8433 24.18C73.2473 22.92 75.1913 22.308 77.7113 22.308C80.0873 22.308 82.0673 22.776 83.5793 23.712C85.0553 24.684 85.9193 26.34 86.1353 28.68H81.1313C81.0593 28.032 80.8793 27.528 80.5913 27.132C80.0513 26.448 79.1153 26.124 77.7833 26.124C76.7033 26.124 75.9113 26.304 75.4793 26.628C74.9753 26.988 74.7593 27.384 74.7593 27.816C74.7593 28.428 75.0113 28.824 75.5153 29.076C75.9833 29.328 77.7473 29.832 80.7353 30.48C82.7153 30.948 84.1913 31.632 85.1993 32.604C86.1713 33.576 86.6753 34.764 86.6753 36.204C86.6753 38.112 85.9913 39.66 84.5513 40.848C83.1473 42.036 80.9513 42.648 77.9993 42.648C75.0113 42.648 72.7793 42 71.3393 40.74C69.8993 39.48 69.1793 37.86 69.1793 35.88H74.2553ZM101.819 29.724C101.711 29.004 101.495 28.356 101.099 27.78C100.523 26.988 99.6593 26.628 98.4713 26.628C96.7793 26.628 95.6273 27.456 95.0153 29.148C94.6913 30.012 94.5113 31.2 94.5113 32.676C94.5113 34.08 94.6913 35.232 95.0153 36.06C95.5913 37.68 96.7433 38.472 98.3993 38.472C99.5513 38.472 100.379 38.148 100.883 37.5C101.387 36.888 101.675 36.06 101.783 35.052H106.895C106.787 36.6 106.211 38.04 105.239 39.372C103.691 41.568 101.351 42.684 98.2553 42.684C95.1953 42.684 92.9273 41.748 91.4513 39.912C90.0113 38.112 89.2913 35.736 89.2913 32.82C89.2913 29.508 90.0833 26.952 91.7033 25.116C93.2873 23.28 95.5193 22.38 98.3273 22.38C100.739 22.38 102.719 22.92 104.231 24C105.779 25.08 106.679 26.988 106.931 29.724H101.819ZM124.163 22.956C125.135 23.352 125.927 24 126.539 24.828C127.079 25.548 127.403 26.268 127.511 27.024C127.619 27.78 127.691 29.04 127.691 30.768V42H122.579V30.336C122.579 29.292 122.399 28.5 122.039 27.852C121.571 26.952 120.743 26.52 119.447 26.52C118.115 26.52 117.107 26.952 116.423 27.816C115.739 28.716 115.415 30.012 115.415 31.632V42H110.411V16.188H115.415V25.332C116.135 24.216 116.963 23.424 117.935 22.992C118.871 22.56 119.879 22.344 120.923 22.344C122.111 22.344 123.191 22.56 124.163 22.956ZM148.367 39.66C146.747 41.676 144.299 42.684 140.987 42.684C137.711 42.684 135.263 41.676 133.643 39.66C132.023 37.68 131.195 35.268 131.195 32.46C131.195 29.688 132.023 27.276 133.643 25.26C135.263 23.244 137.711 22.236 140.987 22.236C144.299 22.236 146.747 23.244 148.367 25.26C149.987 27.276 150.779 29.688 150.779 32.46C150.779 35.268 149.987 37.68 148.367 39.66ZM144.335 36.888C145.127 35.88 145.523 34.368 145.523 32.46C145.523 30.552 145.127 29.04 144.335 27.996C143.543 26.988 142.427 26.448 140.987 26.448C139.511 26.448 138.395 26.988 137.603 27.996C136.811 29.04 136.415 30.552 136.415 32.46C136.415 34.368 136.811 35.88 137.603 36.888C138.395 37.932 139.511 38.472 140.987 38.472C142.427 38.472 143.543 37.932 144.335 36.888ZM170.375 39.66C168.755 41.676 166.307 42.684 162.995 42.684C159.719 42.684 157.271 41.676 155.651 39.66C154.031 37.68 153.203 35.268 153.203 32.46C153.203 29.688 154.031 27.276 155.651 25.26C157.271 23.244 159.719 22.236 162.995 22.236C166.307 22.236 168.755 23.244 170.375 25.26C171.995 27.276 172.787 29.688 172.787 32.46C172.787 35.268 171.995 37.68 170.375 39.66ZM166.343 36.888C167.135 35.88 167.531 34.368 167.531 32.46C167.531 30.552 167.135 29.04 166.343 27.996C165.551 26.988 164.435 26.448 162.995 26.448C161.519 26.448 160.403 26.988 159.611 27.996C158.819 29.04 158.423 30.552 158.423 32.46C158.423 34.368 158.819 35.88 159.611 36.888C160.403 37.932 161.519 38.472 162.995 38.472C164.435 38.472 165.551 37.932 166.343 36.888ZM176.507 16.08H181.511V42H176.507V16.08Z" fill="#10B981"/>
<path d="M240.97 14.6524C240.778 13.5647 239.74 12.8385 238.652 13.0304L220.926 16.1586C219.839 16.3505 219.112 17.3879 219.304 18.4757C219.496 19.5635 220.534 20.2897 221.621 20.0977L237.378 17.3171L240.159 33.0737C240.351 34.1614 241.388 34.8876 242.476 34.6957C243.563 34.5037 244.29 33.4663 244.098 32.3785L240.97 14.6524ZM225 35L226.638 36.1469L240.638 16.1469L239 15L237.362 13.8531L223.362 33.8531L225 35Z" fill="#10B981"/>
</svg>
