<svg width="1920" height="438" viewBox="0 0 1920 438" fill="none" xmlns="http://www.w3.org/2000/svg">
<path d="M-23 429.412C-8.9828 405.692 5.0344 381.972 19.0516 358.252C31.2411 358.252 43.4156 358.252 55.6051 358.252C109.952 262.555 164.314 166.857 218.661 71.1597C208.676 71.1597 198.692 71.1597 188.708 71.1597C202.725 47.4398 216.742 23.7199 230.76 0C260.305 0 289.849 0 319.394 0C348.259 0 362.82 14.7227 364.693 44.1681C366.838 73.2045 355.872 116.555 330.164 174.219C318.095 201.21 306.042 228.202 293.973 255.193C268.265 312.857 239.369 356.412 205.671 385.857C172.546 414.894 135.645 429.412 96.554 429.412C56.7077 429.412 16.8463 429.412 -23 429.412ZM109.363 355.798C118.093 355.798 126.824 355.798 135.554 355.798C156.731 355.798 176.564 347.21 194.569 330.034C212.619 312.857 228.856 288.728 243.75 257.647C257.495 229.02 271.225 200.392 284.971 171.765C300.06 140.275 307.386 116.146 307.401 99.3782C307.582 82.2017 299.214 73.6134 281.844 73.6134C274.669 73.6134 267.494 73.6134 260.32 73.6134C210.006 167.675 159.677 261.737 109.363 355.798ZM320.784 438C300.181 438 284.049 431.866 272.917 419.597C261.77 407.328 256.755 389.538 257.933 366.227C259.096 342.916 267.283 314.902 281.919 282.185C283.385 278.913 284.85 275.641 286.3 272.37C300.936 239.653 317.672 211.639 335.934 188.328C354.196 165.017 372.563 147.227 391.081 134.958C409.615 122.689 426.91 116.555 443.525 116.555C460.14 116.555 472.768 122.689 481.921 134.958C491.075 147.227 495.848 165.017 496.316 188.328C496.769 211.639 492.117 239.653 481.755 272.37C480.713 275.641 479.686 278.913 478.643 282.185C468.282 314.902 455.08 342.916 438.435 366.227C421.804 389.538 403.21 407.328 382.698 419.597C362.186 431.866 341.372 438 320.784 438ZM347.021 369.294C362.488 369.294 378.152 361.728 393.543 346.597C409.116 331.056 421.653 308.972 431.622 280.345C432.332 278.3 433.042 276.255 433.752 274.21C443.706 245.583 446.637 223.703 442.936 208.571C439.613 193.031 431.215 185.261 417.288 185.261C403.618 185.261 389.269 193.031 373.847 208.571C358.591 223.703 344.8 245.583 332.898 274.21C332.052 276.255 331.206 278.3 330.345 280.345C318.443 308.972 314.123 331.056 317.823 346.597C321.66 361.728 331.538 369.294 347.021 369.294ZM520.076 434.319C503.974 434.319 491.241 429.003 482.208 418.37C473.568 407.328 468.992 392.196 468.448 372.975C467.889 353.754 471.665 331.669 479.444 306.723C498.28 246.196 517.13 185.669 535.966 125.143C550.21 125.143 564.438 125.143 578.682 125.143C562.324 183.625 545.965 242.106 529.592 300.588C523.187 323.49 521.858 340.667 525.876 352.118C530.121 363.569 539.183 369.294 552.793 369.294C568.275 369.294 582.187 361.524 594.18 345.983C606.279 330.034 615.281 307.95 621.549 279.731C633.029 228.202 644.509 176.672 655.988 125.143C670.232 125.143 684.461 125.143 698.704 125.143C679.31 226.566 659.916 327.989 640.521 429.412C623.362 429.412 606.203 429.412 589.044 429.412C591.99 416.12 594.95 402.829 597.895 389.538C595.464 389.538 593.032 389.538 590.6 389.538C585.041 399.762 576.643 409.782 565.224 419.597C553.82 429.412 538.685 434.319 520.076 434.319ZM784.167 438C765.528 438 751.722 433.297 743.022 423.891C734.321 414.485 728.536 404.056 725.576 392.605C723.144 392.605 720.712 392.605 718.265 392.605C716.453 404.874 714.64 417.143 712.843 429.412C695.684 429.412 678.525 429.412 661.366 429.412C686.938 286.275 712.51 143.137 738.098 0C751.012 0 763.942 0 776.871 0C769.017 53.3697 761.163 106.74 753.308 160.109C755.393 160.109 757.477 160.109 759.562 160.109C763.156 152.748 767.476 145.796 772.476 139.252C777.702 132.709 783.956 127.392 791.221 123.303C798.773 118.804 807.549 116.555 817.654 116.555C831.128 116.555 842.97 122.689 853.649 134.958C864.343 146.818 872.666 164.403 878.708 187.714C884.719 211.025 887.212 239.244 885.626 272.37C885.459 275.641 885.308 278.913 885.142 282.185C883.556 315.311 878.255 343.529 868.693 366.84C859.132 390.151 846.837 407.941 831.853 420.21C816.914 432.07 800.873 438 784.167 438ZM775.98 370.521C791.478 370.521 805.253 362.955 816.854 347.824C828.53 332.283 835.297 309.79 837.623 280.345C837.789 278.3 837.955 276.255 838.121 274.21C840.447 244.765 837.396 222.476 829.421 207.345C821.687 191.804 811.099 184.034 797.187 184.034C783.518 184.034 771.162 191.804 759.652 207.345C748.233 222.476 740.122 244.765 735.756 274.21C735.454 276.255 735.152 278.3 734.85 280.345C730.485 309.79 732.146 332.283 740.273 347.824C748.444 362.955 760.498 370.521 775.98 370.521ZM888.722 429.412C894.703 286.275 900.67 143.137 906.636 0C919.566 0 932.496 0 945.425 0C943.96 143.137 942.495 286.275 941.03 429.412C923.599 429.412 906.153 429.412 888.722 429.412ZM1055.96 438C1035.36 438 1016.8 431.661 1000.8 418.983C985.045 405.896 972.871 387.697 964.276 364.387C961.799 357.306 959.699 349.868 957.992 342.047C954.005 323.695 952.147 303.323 952.238 280.958C952.238 278.504 952.253 276.05 952.268 273.597C952.343 251.231 954.337 230.962 957.992 212.814C959.563 205.07 961.436 197.734 963.596 190.782C970.862 167.062 980.695 148.863 993.126 136.185C1005.56 123.098 1019.8 116.555 1036.42 116.555C1052.8 116.555 1067.49 123.303 1081.02 136.798C1094.49 149.885 1106.11 168.289 1115.87 192.008C1125.56 215.319 1132.51 242.515 1136.21 273.597C1137.26 282.389 1138.3 291.182 1139.34 299.975C1093.27 299.975 1047.22 299.975 1001.16 299.975C1002.25 320.832 1007.63 337.804 1017.63 350.891C1027.6 363.978 1039.71 370.521 1053.59 370.521C1067.74 370.521 1077.85 365.818 1083.71 356.412C1089.58 347.006 1093.66 336.577 1096.02 325.126C1110.35 336.168 1124.98 347.21 1139.88 358.252C1137.39 368.885 1133.22 380.541 1127.23 393.218C1121.47 405.487 1112.94 416.12 1101.58 425.118C1090.17 433.706 1074.87 438 1055.96 438ZM999.893 242.311C1028.38 242.311 1056.87 242.311 1085.36 242.311C1082.85 224.725 1077.38 210.616 1069.18 199.983C1061.19 189.35 1051.54 184.034 1039.98 184.034C1027.96 184.034 1018.7 189.35 1011.93 199.983C1005.18 210.616 1001.12 224.725 999.893 242.311ZM1229.45 429.412C1210.06 310.812 1190.67 192.213 1171.27 73.6134C1149.1 73.6134 1126.91 73.6134 1104.74 73.6134C1101.97 49.0756 1099.22 24.5378 1096.46 0C1151.85 0 1207.25 0 1262.64 0C1268.71 24.5378 1274.78 49.0756 1280.86 73.6134C1258.68 73.6134 1236.51 73.6134 1214.32 73.6134C1237.63 192.213 1260.95 310.812 1284.25 429.412C1265.98 429.412 1247.72 429.412 1229.45 429.412ZM1427.87 438C1407.28 438 1387.3 431.661 1368.48 418.983C1349.81 405.896 1333.59 387.697 1319.8 364.387C1306.16 340.667 1296.13 312.857 1289.15 280.958C1288.61 278.504 1288.08 276.05 1287.53 273.597C1280.55 241.697 1278.36 214.092 1280.42 190.782C1282.38 167.062 1288.17 148.863 1297.77 136.185C1307.27 123.098 1320.07 116.555 1336.68 116.555C1353.07 116.555 1369.26 123.303 1385.8 136.798C1402.19 149.885 1417.92 168.289 1432.96 192.008C1447.85 215.319 1460.86 242.515 1471.48 273.597C1474.48 282.389 1477.49 291.182 1480.48 299.975C1434.43 299.975 1388.37 299.975 1342.3 299.975C1348.04 320.832 1357.21 337.804 1370.13 350.891C1383.02 363.978 1396.59 370.521 1410.47 370.521C1424.62 370.521 1433.67 365.818 1437.45 356.412C1441.21 347.006 1442.98 336.577 1442.78 325.126C1459.58 336.168 1476.66 347.21 1494.03 358.252C1493.89 368.885 1492.34 380.541 1489.17 393.218C1486.14 405.487 1479.98 416.12 1470.62 425.118C1461.13 433.706 1446.8 438 1427.87 438ZM1328.19 242.311C1356.68 242.311 1385.17 242.311 1413.66 242.311C1407.22 224.725 1398.63 210.616 1388.04 199.983C1377.68 189.35 1366.85 184.034 1355.29 184.034C1343.27 184.034 1335.19 189.35 1330.79 199.983C1326.41 210.616 1325.51 224.725 1328.19 242.311ZM1634.07 438C1614.04 438 1593.34 431.866 1572.56 419.597C1552.02 407.328 1533.12 389.538 1515.93 366.227C1498.73 342.916 1484.79 314.698 1473.5 281.571C1472.52 278.709 1471.55 275.846 1470.57 272.983C1459.29 239.857 1453.9 211.639 1453.78 188.328C1453.68 165.017 1457.93 147.227 1466.55 134.958C1475.42 122.689 1487.67 116.555 1503.83 116.555C1519.77 116.555 1535.57 121.667 1551.61 131.891C1567.65 142.115 1583.39 156.224 1598.87 174.219C1614.38 191.804 1628.73 211.843 1641.68 234.336C1629.26 239.653 1616.68 244.969 1603.93 250.286C1597.6 238.017 1590.58 226.975 1582.97 217.16C1575.35 207.345 1567.24 199.574 1558.66 193.849C1550.31 188.123 1541.7 185.261 1532.73 185.261C1523.76 185.261 1517.02 188.737 1512.35 195.689C1507.76 202.232 1505.84 212.252 1506.55 225.748C1507.35 238.835 1511.25 254.989 1518.41 274.21C1519.18 276.255 1519.93 278.3 1520.69 280.345C1527.85 299.566 1536.1 315.924 1545.6 329.42C1555.2 342.507 1565.35 352.527 1576.02 359.479C1586.77 366.022 1597.3 369.294 1607.44 369.294C1622.65 369.294 1631.66 363.364 1634.23 351.504C1636.91 339.235 1634.9 323.286 1628.37 303.655C1646.56 309.585 1664.94 315.515 1683.49 321.445C1690.26 343.12 1693.56 362.955 1693.17 380.95C1692.87 398.535 1687.9 412.44 1678.29 422.664C1668.7 432.888 1653.82 438 1634.07 438ZM1739.74 429.412C1672.33 286.275 1604.93 143.137 1537.52 0C1550.45 0 1563.38 0 1576.31 0C1603.52 54.1877 1630.74 108.375 1657.98 162.563C1660.06 162.563 1662.16 162.563 1664.24 162.563C1662.78 156.02 1662.34 149.476 1662.89 142.933C1663.41 136.389 1665.79 131.073 1669.97 126.983C1674.18 122.485 1681.19 120.235 1691.1 120.235C1704.15 120.235 1718.55 125.756 1734.62 136.798C1750.69 147.431 1767.17 162.359 1784.07 181.58C1800.72 200.392 1816.71 222.476 1831.7 247.832C1867.46 308.359 1903.23 368.885 1939 429.412C1921.57 429.412 1904.12 429.412 1886.69 429.412C1853.98 370.93 1821.26 312.448 1788.54 253.966C1775.72 231.064 1762.68 213.888 1749.68 202.437C1736.9 190.986 1724.6 185.261 1712.58 185.261C1698.9 185.261 1692.48 193.235 1692.91 209.185C1693.19 224.725 1700.21 246.605 1714.38 274.824C1740.27 326.353 1766.16 377.882 1792.05 429.412C1774.62 429.412 1757.17 429.412 1739.74 429.412Z" fill="#1F2937"/>
</svg>
