<svg width="107" height="45" viewBox="0 0 107 45" fill="none" xmlns="http://www.w3.org/2000/svg">
<rect x="1" y="9.24023" width="37.9105" height="26.0193" rx="5" stroke="white" stroke-width="2"/>
<rect x="4" y="12" width="32" height="21" fill="#1A1A1A"/>
<path d="M9 22.5C9 16.701 13.701 12 19.5 12H46V33H19.5C13.701 33 9 28.299 9 22.5Z" fill="#1A1A1A"/>
<path d="M15.0013 37.3594H25.6344L27.091 40.2437H12.8164L15.0013 37.3594Z" fill="white"/>
<rect x="8.15625" y="41.4805" width="23.3054" height="2.74699" rx="1.37349" fill="white"/>
<rect x="11.9531" y="4.94531" width="4.07845" height="11.812" fill="#1A1A1A"/>
<rect x="12.8242" y="2.19922" width="2.33054" height="12.9108" fill="white"/>
<rect x="15.1602" y="1.09766" width="2.19759" height="4.9524" transform="rotate(90 15.1602 1.09766)" fill="white"/>
<ellipse cx="9.33054" cy="2.19759" rx="2.33054" ry="2.19759" fill="white"/>
<rect width="4.07845" height="11.812" transform="matrix(-1 0 0 1 30.0078 4.94531)" fill="#1A1A1A"/>
<rect width="2.33054" height="12.9108" transform="matrix(-1 0 0 1 29.1328 2.19922)" fill="white"/>
<rect width="2.19759" height="4.9524" transform="matrix(0 1 1 0 26.8008 1.09766)" fill="white"/>
<ellipse cx="2.33054" cy="2.19759" rx="2.33054" ry="2.19759" transform="matrix(-1 0 0 1 34.9609 0)" fill="white"/>
<rect width="4.07845" height="11.812" transform="matrix(-1 0 0 1 22.7227 5.76953)" fill="#1A1A1A"/>
<rect width="2.33054" height="11.5373" transform="matrix(-1 0 0 1 21.8516 3.57227)" fill="white"/>
<ellipse cx="2.33054" cy="2.19759" rx="2.33054" ry="2.19759" transform="matrix(-1 0 0 1 23.0156 1.375)" fill="white"/>
<path d="M16.736 29V27.144H18.208V19.656H16.736V17.8H21.344C22.848 17.8 23.9893 18.184 24.768 18.952C25.5573 19.7093 25.952 20.84 25.952 22.344V24.456C25.952 25.96 25.5573 27.096 24.768 27.864C23.9893 28.6213 22.848 29 21.344 29H16.736ZM20.32 27.08H21.376C22.2293 27.08 22.8533 26.856 23.248 26.408C23.6427 25.96 23.84 25.3307 23.84 24.52V22.28C23.84 21.4587 23.6427 20.8293 23.248 20.392C22.8533 19.944 22.2293 19.72 21.376 19.72H20.32V27.08ZM31.5523 29.224C30.7629 29.224 30.0536 29.064 29.4243 28.744C28.7949 28.424 28.2989 27.96 27.9363 27.352C27.5736 26.744 27.3923 26.0133 27.3923 25.16V24.904C27.3923 24.0507 27.5736 23.32 27.9363 22.712C28.2989 22.104 28.7949 21.64 29.4243 21.32C30.0536 21 30.7629 20.84 31.5523 20.84C32.3416 20.84 33.0509 21 33.6803 21.32C34.3096 21.64 34.8056 22.104 35.1683 22.712C35.5309 23.32 35.7123 24.0507 35.7123 24.904V25.16C35.7123 26.0133 35.5309 26.744 35.1683 27.352C34.8056 27.96 34.3096 28.424 33.6803 28.744C33.0509 29.064 32.3416 29.224 31.5523 29.224ZM31.5523 27.432C32.1709 27.432 32.6829 27.2347 33.0883 26.84C33.4936 26.4347 33.6963 25.8587 33.6963 25.112V24.952C33.6963 24.2053 33.4936 23.6347 33.0883 23.24C32.6936 22.8347 32.1816 22.632 31.5523 22.632C30.9336 22.632 30.4216 22.8347 30.0163 23.24C29.6109 23.6347 29.4083 24.2053 29.4083 24.952V25.112C29.4083 25.8587 29.6109 26.4347 30.0163 26.84C30.4216 27.2347 30.9336 27.432 31.5523 27.432ZM40.5971 29.128C39.9785 29.128 39.4345 28.9893 38.9651 28.712C38.5065 28.424 38.1491 28.0293 37.8931 27.528C37.6371 27.0267 37.5091 26.4507 37.5091 25.8V21.064H39.5251V25.64C39.5251 26.2373 39.6691 26.6853 39.9571 26.984C40.2558 27.2827 40.6771 27.432 41.2211 27.432C41.8398 27.432 42.3198 27.2293 42.6611 26.824C43.0025 26.408 43.1731 25.832 43.1731 25.096V21.064H45.1891V29H43.2051V27.96H42.9171C42.7891 28.2267 42.5491 28.488 42.1971 28.744C41.8451 29 41.3118 29.128 40.5971 29.128ZM52.2005 29.224C51.4858 29.224 50.9365 29.1013 50.5525 28.856C50.1685 28.6107 49.8858 28.3387 49.7045 28.04H49.4165V29H47.4325V17.8H49.4485V21.976H49.7365C49.8538 21.784 50.0085 21.6027 50.2005 21.432C50.4032 21.2613 50.6645 21.1227 50.9845 21.016C51.3152 20.8987 51.7205 20.84 52.2005 20.84C52.8405 20.84 53.4325 21 53.9765 21.32C54.5205 21.6293 54.9578 22.088 55.2885 22.696C55.6192 23.304 55.7845 24.04 55.7845 24.904V25.16C55.7845 26.024 55.6192 26.76 55.2885 27.368C54.9578 27.976 54.5205 28.44 53.9765 28.76C53.4325 29.0693 52.8405 29.224 52.2005 29.224ZM51.5925 27.464C52.2112 27.464 52.7285 27.2667 53.1445 26.872C53.5605 26.4667 53.7685 25.88 53.7685 25.112V24.952C53.7685 24.184 53.5605 23.6027 53.1445 23.208C52.7392 22.8027 52.2218 22.6 51.5925 22.6C50.9738 22.6 50.4565 22.8027 50.0405 23.208C49.6245 23.6027 49.4165 24.184 49.4165 24.952V25.112C49.4165 25.88 49.6245 26.4667 50.0405 26.872C50.4565 27.2667 50.9738 27.464 51.5925 27.464ZM57.6356 29V17.8H59.6516V29H57.6356ZM65.5016 29.224C64.7123 29.224 64.0136 29.0587 63.4056 28.728C62.8083 28.3867 62.339 27.912 61.9976 27.304C61.667 26.6853 61.5016 25.96 61.5016 25.128V24.936C61.5016 24.104 61.667 23.384 61.9976 22.776C62.3283 22.1573 62.7923 21.6827 63.3896 21.352C63.987 21.0107 64.6803 20.84 65.4696 20.84C66.2483 20.84 66.9256 21.016 67.5016 21.368C68.0776 21.7093 68.5256 22.1893 68.8456 22.808C69.1656 23.416 69.3256 24.1253 69.3256 24.936V25.624H63.5496C63.571 26.168 63.7736 26.6107 64.1576 26.952C64.5416 27.2933 65.011 27.464 65.5656 27.464C66.131 27.464 66.547 27.3413 66.8136 27.096C67.0803 26.8507 67.283 26.5787 67.4216 26.28L69.0696 27.144C68.9203 27.4213 68.7016 27.7253 68.4136 28.056C68.1363 28.376 67.763 28.6533 67.2936 28.888C66.8243 29.112 66.227 29.224 65.5016 29.224ZM63.5656 24.12H67.2776C67.235 23.6613 67.0483 23.2933 66.7176 23.016C66.3976 22.7387 65.9763 22.6 65.4536 22.6C64.9096 22.6 64.4776 22.7387 64.1576 23.016C63.8376 23.2933 63.6403 23.6613 63.5656 24.12ZM73.648 29V19.72H70.384V17.8H79.024V19.72H75.76V29H73.648ZM82.6423 29.224C81.8529 29.224 81.1543 29.0587 80.5463 28.728C79.9489 28.3867 79.4796 27.912 79.1383 27.304C78.8076 26.6853 78.6423 25.96 78.6423 25.128V24.936C78.6423 24.104 78.8076 23.384 79.1383 22.776C79.4689 22.1573 79.9329 21.6827 80.5303 21.352C81.1276 21.0107 81.8209 20.84 82.6102 20.84C83.3889 20.84 84.0663 21.016 84.6423 21.368C85.2183 21.7093 85.6663 22.1893 85.9862 22.808C86.3063 23.416 86.4663 24.1253 86.4663 24.936V25.624H80.6903C80.7116 26.168 80.9143 26.6107 81.2983 26.952C81.6823 27.2933 82.1516 27.464 82.7063 27.464C83.2716 27.464 83.6876 27.3413 83.9543 27.096C84.2209 26.8507 84.4236 26.5787 84.5623 26.28L86.2103 27.144C86.0609 27.4213 85.8423 27.7253 85.5543 28.056C85.2769 28.376 84.9036 28.6533 84.4343 28.888C83.9649 29.112 83.3676 29.224 82.6423 29.224ZM80.7063 24.12H84.4183C84.3756 23.6613 84.1889 23.2933 83.8583 23.016C83.5383 22.7387 83.1169 22.6 82.5943 22.6C82.0503 22.6 81.6183 22.7387 81.2983 23.016C80.9783 23.2933 80.7809 23.6613 80.7063 24.12ZM91.9886 29.224C91.2206 29.224 90.522 29.064 89.8926 28.744C89.274 28.424 88.7833 27.96 88.4206 27.352C88.058 26.744 87.8766 26.008 87.8766 25.144V24.92C87.8766 24.056 88.058 23.32 88.4206 22.712C88.7833 22.104 89.274 21.64 89.8926 21.32C90.522 21 91.2206 20.84 91.9886 20.84C92.746 20.84 93.3966 20.9733 93.9406 21.24C94.4846 21.5067 94.922 21.8747 95.2526 22.344C95.594 22.8027 95.818 23.3253 95.9246 23.912L93.9726 24.328C93.93 24.008 93.834 23.72 93.6846 23.464C93.5353 23.208 93.322 23.0053 93.0446 22.856C92.778 22.7067 92.442 22.632 92.0366 22.632C91.6313 22.632 91.2633 22.7227 90.9326 22.904C90.6126 23.0747 90.3566 23.336 90.1646 23.688C89.9833 24.0293 89.8926 24.4507 89.8926 24.952V25.112C89.8926 25.6133 89.9833 26.04 90.1646 26.392C90.3566 26.7333 90.6126 26.9947 90.9326 27.176C91.2633 27.3467 91.6313 27.432 92.0366 27.432C92.6446 27.432 93.1033 27.2773 93.4126 26.968C93.7326 26.648 93.9353 26.232 94.0206 25.72L95.9726 26.184C95.834 26.7493 95.594 27.2667 95.2526 27.736C94.922 28.1947 94.4846 28.5573 93.9406 28.824C93.3966 29.0907 92.746 29.224 91.9886 29.224ZM97.6356 29V17.8H99.6516V22.04H99.9396C100.025 21.8693 100.158 21.6987 100.34 21.528C100.521 21.3573 100.761 21.2187 101.06 21.112C101.369 20.9947 101.758 20.936 102.228 20.936C102.846 20.936 103.385 21.08 103.844 21.368C104.313 21.6453 104.676 22.0347 104.932 22.536C105.188 23.0267 105.316 23.6027 105.316 24.264V29H103.3V24.424C103.3 23.8267 103.15 23.3787 102.852 23.08C102.564 22.7813 102.148 22.632 101.604 22.632C100.985 22.632 100.505 22.84 100.164 23.256C99.8223 23.6613 99.6516 24.232 99.6516 24.968V29H97.6356Z" fill="white"/>
</svg>
