<svg width="20" height="21" viewBox="0 0 20 21" fill="none" xmlns="http://www.w3.org/2000/svg">
<path d="M19.3158 4.74751C19.2282 4.60509 19.1114 4.48868 18.9752 4.40825C18.839 4.32783 18.6875 4.28578 18.5337 4.28572H5.53087L4.43295 1.31787C4.28941 0.926698 4.04574 0.592487 3.73298 0.357797C3.42021 0.123107 3.05249 -0.00144172 2.67666 1.25922e-05H0.457031V2.14287H2.67666L7.19011 14.3411C7.26241 14.5362 7.38437 14.7029 7.54063 14.8202C7.6969 14.9375 7.88048 15 8.06826 15H15.6795C16.0762 15 16.4311 14.7225 16.571 14.3057L19.4252 5.73429C19.4791 5.5721 19.4973 5.3976 19.4783 5.22574C19.4592 5.05388 19.4035 4.88978 19.3158 4.74751Z" fill="white"/>
<path d="M7.87667 20.2396C8.97138 20.2396 9.85882 19.3465 9.85882 18.2448C9.85882 17.1431 8.97138 16.25 7.87667 16.25C6.78197 16.25 5.89453 17.1431 5.89453 18.2448C5.89453 19.3465 6.78197 20.2396 7.87667 20.2396Z" fill="white"/>
<path d="M15.1247 20.2396C16.2194 20.2396 17.1069 19.3465 17.1069 18.2448C17.1069 17.1431 16.2194 16.25 15.1247 16.25C14.03 16.25 13.1426 17.1431 13.1426 18.2448C13.1426 19.3465 14.03 20.2396 15.1247 20.2396Z" fill="white"/>
</svg>
