<svg width="21" height="20" viewBox="0 0 21 20" fill="none" xmlns="http://www.w3.org/2000/svg">
<path d="M17.7382 7.63178H3.53665C3.24924 7.63211 2.96563 7.69738 2.70701 7.82273C2.44838 7.94809 2.22144 8.13027 2.04313 8.35568C1.86556 8.58045 1.74149 8.84269 1.68029 9.12252C1.6191 9.40235 1.6224 9.69244 1.68994 9.97081L3.21265 16.2056C3.43311 17.0089 3.91178 17.7174 4.57481 18.2216C5.23838 18.7266 6.05082 19 6.8866 19H14.3863C15.2221 19 16.0345 18.7266 16.6981 18.2216C17.3611 17.7174 17.8398 17.0089 18.0603 16.2056L19.583 9.97178C19.6855 9.55151 19.6405 9.10879 19.4556 8.71771C19.2707 8.32663 18.957 8.01094 18.5672 7.82346C18.3078 7.69892 18.024 7.63346 17.7363 7.63178M6.83017 11.4205V15.2103M10.6374 11.4205V15.2103M14.4447 11.4205V15.2103M17.3004 7.63178C17.3 6.76005 17.1274 5.89697 16.7925 5.09215C16.4575 4.28733 15.9668 3.55663 15.3486 2.94206C14.0968 1.69714 12.4028 0.998836 10.6374 1C8.87201 0.998836 7.17803 1.69714 5.92628 2.94206C5.30821 3.55671 4.81769 4.28744 4.4829 5.09226C4.14812 5.89708 3.97567 6.76011 3.97546 7.63178" stroke="#10B981" stroke-width="2" stroke-linecap="round" stroke-linejoin="round"/>
</svg>
