<svg width="18" height="18" viewBox="0 0 18 18" fill="none" xmlns="http://www.w3.org/2000/svg">
<path fill-rule="evenodd" clip-rule="evenodd" d="M6.67806 0.854903C7.30029 0.324682 8.08528 0.0234531 8.90247 0.00131359C9.71966 -0.0208259 10.5198 0.237459 11.1698 0.733211L11.3219 0.854903L11.6584 1.14124C11.9035 1.35062 12.1997 1.48931 12.5174 1.54389L12.6766 1.56358L13.1177 1.59937C13.9349 1.66457 14.7049 2.00833 15.2991 2.57316C15.8932 3.13799 16.2754 3.88967 16.3819 4.70252L16.4007 4.88147L16.4365 5.3235C16.4615 5.64384 16.5734 5.95165 16.7586 6.21472L16.857 6.34178L17.1451 6.67822C17.6753 7.30046 17.9765 8.08547 17.9987 8.90268C18.0208 9.71988 17.7625 10.52 17.2668 11.1701L17.1451 11.3222L16.8579 11.6586C16.6488 11.9035 16.5097 12.2003 16.4552 12.5176L16.4356 12.6769L16.4007 13.1181C16.3355 13.9352 15.9917 14.7053 15.4269 15.2994C14.8621 15.8936 14.1104 16.2758 13.2976 16.3823L13.1177 16.401L12.6766 16.4368C12.356 16.4622 12.0482 16.5735 11.7854 16.759L11.6584 16.8583L11.321 17.1446C10.6989 17.675 9.91399 17.9764 9.0968 17.9987C8.2796 18.021 7.47941 17.7628 6.82928 17.2672L6.67806 17.1455L6.34163 16.8583C6.09674 16.6492 5.79998 16.5101 5.48265 16.4556L5.32338 16.4368L4.88226 16.401C4.06509 16.3358 3.29506 15.9921 2.70093 15.4273C2.10679 14.8624 1.72456 14.1108 1.61812 13.2979L1.59933 13.1189L1.56354 12.6769C1.5382 12.3563 1.42693 12.0484 1.24143 11.7857L1.14211 11.6586L0.854883 11.3213C0.324675 10.6991 0.0234526 9.91406 0.00131356 9.09685C-0.0208254 8.27964 0.237453 7.47948 0.733194 6.82944L0.854883 6.67822L1.14121 6.34178C1.35059 6.09661 1.48928 5.80043 1.54386 5.48278L1.56354 5.3235L1.59933 4.88237C1.66454 4.06518 2.00828 3.29514 2.5731 2.70099C3.13792 2.10684 3.88958 1.7246 4.70241 1.61816L4.88136 1.59937L5.32338 1.56358C5.64371 1.53853 5.95151 1.42668 6.21457 1.24145L6.34163 1.14213L6.67806 0.854903Z" fill="#C0E7B9"/>
<path fill-rule="evenodd" clip-rule="evenodd" d="M6.35315 5.42188C5.99719 5.42188 5.65581 5.56328 5.4041 5.81499C5.1524 6.0667 5.011 6.40809 5.011 6.76407C5.011 7.12004 5.1524 7.46143 5.4041 7.71314C5.65581 7.96485 5.99719 8.10626 6.35315 8.10626C6.70912 8.10626 7.0505 7.96485 7.3022 7.71314C7.55391 7.46143 7.69531 7.12004 7.69531 6.76407C7.69531 6.40809 7.55391 6.0667 7.3022 5.81499C7.0505 5.56328 6.70912 5.42188 6.35315 5.42188ZM10.6418 5.68405L5.27316 11.0528C5.1877 11.1354 5.11954 11.2341 5.07264 11.3433C5.02575 11.4524 5.00107 11.5698 5.00003 11.6887C4.999 11.8075 5.02164 11.9253 5.06663 12.0353C5.11162 12.1452 5.17806 12.2451 5.26207 12.3291C5.34609 12.4132 5.44599 12.4796 5.55595 12.5246C5.66592 12.5696 5.78374 12.5922 5.90255 12.5912C6.02135 12.5902 6.13877 12.5655 6.24793 12.5186C6.3571 12.4717 6.45583 12.4035 6.53837 12.3181L11.907 6.94929C12.07 6.78053 12.1602 6.5545 12.1581 6.31989C12.1561 6.08528 12.062 5.86085 11.8961 5.69495C11.7302 5.52905 11.5058 5.43494 11.2712 5.4329C11.0366 5.43087 10.8106 5.52106 10.6418 5.68405ZM10.827 9.89584C10.4711 9.89584 10.1297 10.0373 9.87797 10.289C9.62627 10.5407 9.48486 10.8821 9.48486 11.238C9.48486 11.594 9.62627 11.9354 9.87797 12.1871C10.1297 12.4388 10.4711 12.5802 10.827 12.5802C11.183 12.5802 11.5244 12.4388 11.7761 12.1871C12.0278 11.9354 12.1692 11.594 12.1692 11.238C12.1692 10.8821 12.0278 10.5407 11.7761 10.289C11.5244 10.0373 11.183 9.89584 10.827 9.89584Z" fill="white"/>
</svg>
