<svg width="106" height="23" viewBox="0 0 106 23" fill="none" xmlns="http://www.w3.org/2000/svg">
<path d="M8.96 11.08C8.784 10.296 8.336 9.736 7.632 9.432C7.232 9.256 6.784 9.176 6.304 9.176C5.376 9.176 4.624 9.528 4.016 10.216C3.424 10.92 3.12 11.976 3.12 13.384C3.12 14.792 3.44 15.8 4.096 16.392C4.736 16.984 5.472 17.272 6.304 17.272C7.104 17.272 7.76 17.032 8.288 16.568C8.8 16.104 9.12 15.496 9.232 14.744H6.576V12.824H11.36V19H9.776L9.536 17.56C9.072 18.104 8.656 18.488 8.288 18.712C7.648 19.112 6.864 19.304 5.936 19.304C4.416 19.304 3.168 18.776 2.192 17.72C1.168 16.664 0.672 15.208 0.672 13.352C0.672 11.496 1.184 10.008 2.208 8.872C3.232 7.752 4.592 7.192 6.272 7.192C7.728 7.192 8.912 7.56 9.808 8.296C10.688 9.032 11.2 9.976 11.328 11.08H8.96ZM20.5971 17.96C19.8771 18.856 18.7891 19.304 17.3171 19.304C15.8611 19.304 14.7731 18.856 14.0531 17.96C13.3331 17.08 12.9651 16.008 12.9651 14.76C12.9651 13.528 13.3331 12.456 14.0531 11.56C14.7731 10.664 15.8611 10.216 17.3171 10.216C18.7891 10.216 19.8771 10.664 20.5971 11.56C21.3171 12.456 21.6691 13.528 21.6691 14.76C21.6691 16.008 21.3171 17.08 20.5971 17.96ZM18.8051 16.728C19.1571 16.28 19.3331 15.608 19.3331 14.76C19.3331 13.912 19.1571 13.24 18.8051 12.776C18.4531 12.328 17.9571 12.088 17.3171 12.088C16.6611 12.088 16.1651 12.328 15.8131 12.776C15.4611 13.24 15.2851 13.912 15.2851 14.76C15.2851 15.608 15.4611 16.28 15.8131 16.728C16.1651 17.192 16.6611 17.432 17.3171 17.432C17.9571 17.432 18.4531 17.192 18.8051 16.728ZM28.0315 10.568V8.184H30.2395V10.568H31.6315V12.152H30.2395V16.648C30.2395 17 30.2875 17.208 30.3675 17.304C30.4635 17.384 30.7355 17.432 31.1835 17.432C31.2635 17.432 31.3275 17.432 31.4075 17.416H31.6315V19.08L30.5755 19.112C29.5195 19.16 28.7995 18.968 28.4155 18.568C28.1595 18.312 28.0315 17.928 28.0315 17.384V12.152H26.8475V10.568H28.0315ZM40.1596 17.96C39.4396 18.856 38.3516 19.304 36.8796 19.304C35.4236 19.304 34.3356 18.856 33.6156 17.96C32.8956 17.08 32.5276 16.008 32.5276 14.76C32.5276 13.528 32.8956 12.456 33.6156 11.56C34.3356 10.664 35.4236 10.216 36.8796 10.216C38.3516 10.216 39.4396 10.664 40.1596 11.56C40.8796 12.456 41.2316 13.528 41.2316 14.76C41.2316 16.008 40.8796 17.08 40.1596 17.96ZM38.3676 16.728C38.7196 16.28 38.8956 15.608 38.8956 14.76C38.8956 13.912 38.7196 13.24 38.3676 12.776C38.0156 12.328 37.5196 12.088 36.8796 12.088C36.2236 12.088 35.7276 12.328 35.3756 12.776C35.0236 13.24 34.8476 13.912 34.8476 14.76C34.8476 15.608 35.0236 16.28 35.3756 16.728C35.7276 17.192 36.2236 17.432 36.8796 17.432C37.5196 17.432 38.0156 17.192 38.3676 16.728ZM54.426 11.4C55.114 12.136 55.45 13.208 55.45 14.632C55.45 16.136 55.114 17.272 54.442 18.056C53.77 18.856 52.906 19.24 51.834 19.24C51.162 19.24 50.586 19.064 50.154 18.728C49.914 18.552 49.658 18.28 49.434 17.912V22.344H47.226V10.488H49.354V11.736C49.594 11.368 49.85 11.08 50.122 10.872C50.618 10.488 51.21 10.296 51.898 10.296C52.89 10.296 53.722 10.664 54.426 11.4ZM52.714 13C52.41 12.488 51.914 12.248 51.242 12.248C50.442 12.248 49.898 12.632 49.578 13.384C49.434 13.8 49.354 14.312 49.354 14.936C49.354 15.928 49.61 16.632 50.138 17.016C50.458 17.256 50.826 17.368 51.242 17.368C51.866 17.368 52.346 17.128 52.666 16.664C52.986 16.184 53.162 15.544 53.162 14.744C53.162 14.088 53.002 13.512 52.714 13ZM60.4153 13.816C60.8313 13.768 61.1193 13.704 61.2953 13.624C61.6153 13.496 61.7753 13.288 61.7753 13C61.7753 12.648 61.6633 12.392 61.4073 12.264C61.1673 12.136 60.8153 12.072 60.3513 12.072C59.8233 12.072 59.4393 12.2 59.2313 12.456C59.0713 12.664 58.9753 12.92 58.9113 13.24H56.7673C56.8153 12.504 57.0233 11.88 57.3913 11.4C57.9833 10.664 58.9913 10.28 60.4153 10.28C61.3593 10.28 62.1753 10.472 62.9113 10.84C63.6313 11.208 63.9993 11.912 63.9993 12.936V16.84C63.9993 17.112 63.9993 17.432 64.0153 17.816C64.0312 18.104 64.0633 18.312 64.1433 18.408C64.2073 18.52 64.3193 18.6 64.4633 18.664V19H62.0473C61.9833 18.824 61.9353 18.664 61.9033 18.52C61.8873 18.36 61.8553 18.2 61.8393 18.008C61.5353 18.328 61.1833 18.616 60.7833 18.856C60.3033 19.128 59.7593 19.272 59.1513 19.272C58.3832 19.272 57.7433 19.048 57.2473 18.6C56.7353 18.168 56.4953 17.544 56.4953 16.728C56.4953 15.688 56.8953 14.936 57.6953 14.456C58.1432 14.2 58.7993 14.024 59.6633 13.912L60.4153 13.816ZM61.7593 14.856C61.6313 14.952 61.4873 15.016 61.3433 15.064C61.1993 15.128 61.0073 15.176 60.7513 15.224L60.2552 15.32C59.7753 15.4 59.4393 15.512 59.2473 15.624C58.8953 15.832 58.7193 16.136 58.7193 16.568C58.7193 16.952 58.8313 17.224 59.0393 17.384C59.2633 17.56 59.5033 17.656 59.8073 17.656C60.2873 17.656 60.7352 17.512 61.1353 17.224C61.5353 16.952 61.7433 16.424 61.7593 15.688V14.856ZM70.1859 10.472C70.7139 10.696 71.1619 11.112 71.4979 11.704V10.488H73.6579V18.568C73.6579 19.672 73.4659 20.488 73.0979 21.048C72.4739 22.008 71.2579 22.488 69.4499 22.488C68.3619 22.488 67.4659 22.28 66.7779 21.848C66.0899 21.416 65.7059 20.776 65.6419 19.928H68.0579C68.1219 20.184 68.2339 20.376 68.3619 20.488C68.6019 20.696 69.0019 20.792 69.5779 20.792C70.3779 20.792 70.9219 20.536 71.1939 19.992C71.3699 19.656 71.4499 19.064 71.4499 18.264V17.704C71.2419 18.072 71.0019 18.344 70.7619 18.536C70.3139 18.872 69.7539 19.032 69.0339 19.032C67.9459 19.032 67.0659 18.664 66.4259 17.88C65.7699 17.112 65.4339 16.072 65.4339 14.76C65.4339 13.496 65.7539 12.44 66.3779 11.576C67.0179 10.712 67.9139 10.28 69.0659 10.28C69.4979 10.28 69.8659 10.344 70.1859 10.472ZM70.9379 16.584C71.2899 16.184 71.4819 15.56 71.4819 14.696C71.4819 13.896 71.3059 13.288 70.9699 12.856C70.6179 12.44 70.1699 12.232 69.5939 12.232C68.8099 12.232 68.2659 12.6 67.9779 13.336C67.8179 13.72 67.7379 14.2 67.7379 14.776C67.7379 15.272 67.8339 15.704 67.9939 16.088C68.2979 16.808 68.8419 17.176 69.6099 17.176C70.1379 17.176 70.5859 16.984 70.9379 16.584ZM81.0231 10.664C81.5831 10.92 82.0471 11.336 82.4151 11.912C82.7511 12.424 82.9751 13 83.0711 13.672C83.1191 14.056 83.1511 14.632 83.1351 15.352H77.3111C77.3431 16.216 77.6151 16.808 78.1111 17.16C78.4151 17.368 78.7991 17.48 79.2311 17.48C79.6951 17.48 80.0471 17.336 80.3511 17.08C80.4951 16.952 80.6391 16.744 80.7511 16.504H83.0391C82.9751 17 82.7031 17.512 82.2391 18.04C81.5191 18.872 80.4951 19.288 79.1831 19.288C78.0951 19.288 77.1351 18.936 76.3191 18.232C75.4871 17.544 75.0711 16.392 75.0711 14.824C75.0711 13.352 75.4391 12.232 76.1911 11.432C76.9431 10.648 77.9031 10.264 79.1031 10.264C79.8071 10.264 80.4471 10.392 81.0231 10.664ZM77.9031 12.584C77.6151 12.904 77.4391 13.336 77.3751 13.896H80.8311C80.7831 13.304 80.6231 12.856 80.3031 12.552C79.9831 12.248 79.5831 12.088 79.1031 12.088C78.5911 12.088 78.1911 12.264 77.9031 12.584Z" fill="#10B981"/>
<path d="M103.985 5.82621C103.889 5.28233 103.37 4.91924 102.826 5.01522L93.9632 6.57928C93.4193 6.67526 93.0562 7.19397 93.1522 7.73785C93.2481 8.28173 93.7669 8.64483 94.3107 8.54885L102.189 7.15857L103.579 15.0368C103.675 15.5807 104.194 15.9438 104.738 15.8478C105.282 15.7519 105.645 15.2331 105.549 14.6893L103.985 5.82621ZM96 16L96.8192 16.5735L103.819 6.57346L103 6L102.181 5.42654L95.1808 15.4265L96 16Z" fill="#10B981"/>
</svg>
